<?xml version="1.0" encoding="UTF-8" standalone="no"?>
<!DOCTYPE svg PUBLIC "-//W3C//DTD SVG 1.1//EN"
 "http://www.w3.org/Graphics/SVG/1.1/DTD/svg11.dtd">
<!-- Generated by graphviz version 2.43.0 (0)
 -->
<!-- Title: Azure Landing Zone &#45; Enterprise Scale Landing Zone Pages: 1 -->
<svg width="1072pt" height="1569pt"
 viewBox="36.00 36.00 1036.00 1533.00" xmlns="http://www.w3.org/2000/svg" xmlns:xlink="http://www.w3.org/1999/xlink">
<g id="graph0" class="graph" transform="scale(1 1) rotate(0) translate(180 1389)">
<title>Azure Landing Zone &#45; Enterprise Scale Landing Zone</title>
<polygon fill="#ffffff" stroke="transparent" points="-144,144 -144,-1353 856,-1353 856,144 -144,144"/>
<text text-anchor="middle" x="356" y="-9.2" font-family="Arial" font-size="16.00" fill="#2d3436">Azure Landing Zone &#45; Enterprise Scale Landing Zone</text>
<g id="clust1" class="cluster">
<title>cluster_Identity &amp; Security</title>
<path fill="#e8f4f8" stroke="#aeb6be" d="M20,-279C20,-279 123,-279 123,-279 129,-279 135,-285 135,-291 135,-291 135,-684.5 135,-684.5 135,-690.5 129,-696.5 123,-696.5 123,-696.5 20,-696.5 20,-696.5 14,-696.5 8,-690.5 8,-684.5 8,-684.5 8,-291 8,-291 8,-285 14,-279 20,-279"/>
<text text-anchor="middle" x="71.5" y="-682.9" font-family="Sans-Serif" font-size="12.00" fill="#2d3436">Identity &amp; Security</text>
</g>
<g id="clust2" class="cluster">
<title>cluster_Management &amp; Governance</title>
<path fill="#f0f8ff" stroke="#aeb6be" d="M285,-798C285,-798 536,-798 536,-798 542,-798 548,-804 548,-810 548,-810 548,-1189 548,-1189 548,-1195 542,-1201 536,-1201 536,-1201 285,-1201 285,-1201 279,-1201 273,-1195 273,-1189 273,-1189 273,-810 273,-810 273,-804 279,-798 285,-798"/>
<text text-anchor="middle" x="365.5" y="-1187.4" font-family="Sans-Serif" font-size="12.00" fill="#2d3436">Management &amp; Governance</text>
</g>
<g id="clust3" class="cluster">
<title>cluster_Network Architecture</title>
<path fill="#f0fff0" stroke="#aeb6be" d="M268,-279C268,-279 692,-279 692,-279 698,-279 704,-285 704,-291 704,-291 704,-699 704,-699 704,-705 698,-711 692,-711 692,-711 268,-711 268,-711 262,-711 256,-705 256,-699 256,-699 256,-291 256,-291 256,-285 262,-279 268,-279"/>
<text text-anchor="middle" x="327.5" y="-697.4" font-family="Sans-Serif" font-size="12.00" fill="#2d3436">Network Architecture</text>
</g>
<g id="clust4" class="cluster">
<title>cluster_Compute &amp; Applications</title>
<path fill="#fff8dc" stroke="#aeb6be" d="M397,-34C397,-34 533,-34 533,-34 539,-34 545,-40 545,-46 545,-46 545,-180 545,-180 545,-186 539,-192 533,-192 533,-192 397,-192 397,-192 391,-192 385,-186 385,-180 385,-180 385,-46 385,-46 385,-40 391,-34 397,-34"/>
<text text-anchor="middle" x="465" y="-178.4" font-family="Sans-Serif" font-size="12.00" fill="#2d3436">Compute &amp; Applications</text>
</g>
<!-- 3563448d6a2e4642a2d70adb7e6ec100 -->
<g id="node1" class="node">
<title>3563448d6a2e4642a2d70adb7e6ec100</title>
<image xlink:href="/home/runner/.local/lib/python3.12/site-packages/resources/azure/identity/active-directory.png" width="101px" height="101px" preserveAspectRatio="xMinYMin meet" x="8.5" y="-657.5"/>
<text text-anchor="middle" x="59" y="-541.9" font-family="Arial" font-size="12.00" fill="#2d3436">Azure Active Directory</text>
</g>
<!-- a36b62d2a6144276aa46d46b484353a7 -->
<g id="node2" class="node">
<title>a36b62d2a6144276aa46d46b484353a7</title>
<image xlink:href="/home/runner/.local/lib/python3.12/site-packages/resources/azure/security/key-vaults.png" width="101px" height="101px" preserveAspectRatio="xMinYMin meet" x="20.5" y="-398"/>
<text text-anchor="middle" x="71" y="-282.4" font-family="Arial" font-size="12.00" fill="#2d3436">Key Vault</text>
</g>
<!-- 3563448d6a2e4642a2d70adb7e6ec100&#45;&gt;a36b62d2a6144276aa46d46b484353a7 -->
<g id="edge9" class="edge">
<title>3563448d6a2e4642a2d70adb7e6ec100&#45;&gt;a36b62d2a6144276aa46d46b484353a7</title>
<path fill="none" stroke="#7b8894" d="M65,-538.48C65,-538.48 65,-426.4 65,-426.4"/>
<polygon fill="#7b8894" stroke="#7b8894" points="68.5,-426.4 65,-416.4 61.5,-426.4 68.5,-426.4"/>
</g>
<!-- 9207ef0ed30b498d8e4f4bebca1d5059 -->
<g id="node3" class="node">
<title>9207ef0ed30b498d8e4f4bebca1d5059</title>
<image xlink:href="/home/runner/.local/lib/python3.12/site-packages/resources/azure/general/subscriptions.png" width="101px" height="101px" preserveAspectRatio="xMinYMin meet" x="359.5" y="-1162"/>
<text text-anchor="middle" x="410" y="-1046.4" font-family="Arial" font-size="12.00" fill="#2d3436">Root Management Group</text>
</g>
<!-- 84ff3092cd4f46a7893eace143a49aef -->
<g id="node4" class="node">
<title>84ff3092cd4f46a7893eace143a49aef</title>
<image xlink:href="/home/runner/.local/lib/python3.12/site-packages/resources/azure/general/subscriptions.png" width="101px" height="101px" preserveAspectRatio="xMinYMin meet" x="273.5" y="-917"/>
<text text-anchor="middle" x="324" y="-801.4" font-family="Arial" font-size="12.00" fill="#2d3436">Platform MG</text>
</g>
<!-- 9207ef0ed30b498d8e4f4bebca1d5059&#45;&gt;84ff3092cd4f46a7893eace143a49aef -->
<g id="edge1" class="edge">
<title>9207ef0ed30b498d8e4f4bebca1d5059&#45;&gt;84ff3092cd4f46a7893eace143a49aef</title>
<path fill="none" stroke="#7b8894" d="M367,-1042.93C367,-1042.93 367,-945.06 367,-945.06"/>
<polygon fill="#7b8894" stroke="#7b8894" points="370.5,-945.06 367,-935.06 363.5,-945.06 370.5,-945.06"/>
</g>
<!-- bdeca60c1c2945008c3cfa7bc850679d -->
<g id="node5" class="node">
<title>bdeca60c1c2945008c3cfa7bc850679d</title>
<image xlink:href="/home/runner/.local/lib/python3.12/site-packages/resources/azure/general/subscriptions.png" width="101px" height="101px" preserveAspectRatio="xMinYMin meet" x="446.5" y="-917"/>
<text text-anchor="middle" x="497" y="-801.4" font-family="Arial" font-size="12.00" fill="#2d3436">Landing Zones MG</text>
</g>
<!-- 9207ef0ed30b498d8e4f4bebca1d5059&#45;&gt;bdeca60c1c2945008c3cfa7bc850679d -->
<g id="edge2" class="edge">
<title>9207ef0ed30b498d8e4f4bebca1d5059&#45;&gt;bdeca60c1c2945008c3cfa7bc850679d</title>
<path fill="none" stroke="#7b8894" d="M453.5,-1042.93C453.5,-1042.93 453.5,-945.06 453.5,-945.06"/>
<polygon fill="#7b8894" stroke="#7b8894" points="457,-945.06 453.5,-935.06 450,-945.06 457,-945.06"/>
</g>
<!-- 84ff3092cd4f46a7893eace143a49aef&#45;&gt;3563448d6a2e4642a2d70adb7e6ec100 -->
<g id="edge10" class="edge">
<title>84ff3092cd4f46a7893eace143a49aef&#45;&gt;3563448d6a2e4642a2d70adb7e6ec100</title>
<path fill="none" stroke="#7b8894" d="M301.5,-797.98C301.5,-721.1 301.5,-607 301.5,-607 301.5,-607 119.54,-607 119.54,-607"/>
<polygon fill="#7b8894" stroke="#7b8894" points="119.54,-603.5 109.54,-607 119.54,-610.5 119.54,-603.5"/>
</g>
<!-- 84ff3092cd4f46a7893eace143a49aef&#45;&gt;a36b62d2a6144276aa46d46b484353a7 -->
<g id="edge11" class="edge">
<title>84ff3092cd4f46a7893eace143a49aef&#45;&gt;a36b62d2a6144276aa46d46b484353a7</title>
<path fill="none" stroke="#7b8894" d="M273.26,-866C211.55,-866 115.5,-866 115.5,-866 115.5,-866 115.5,-426.09 115.5,-426.09"/>
<polygon fill="#7b8894" stroke="#7b8894" points="119,-426.09 115.5,-416.09 112,-426.09 119,-426.09"/>
</g>
<!-- 5377ae06a3bf4b4c8cfca6ed8a240193 -->
<g id="node6" class="node">
<title>5377ae06a3bf4b4c8cfca6ed8a240193</title>
<image xlink:href="/home/runner/.local/lib/python3.12/site-packages/resources/azure/network/virtual-networks.png" width="101px" height="101px" preserveAspectRatio="xMinYMin meet" x="378.5" y="-657.5"/>
<text text-anchor="middle" x="429" y="-540.4" font-family="Arial" font-size="12.00" fill="#2d3436">Hub VNet</text>
<text text-anchor="middle" x="429" y="-527.4" font-family="Arial" font-size="12.00" fill="#2d3436">(Shared Services)</text>
</g>
<!-- 84ff3092cd4f46a7893eace143a49aef&#45;&gt;5377ae06a3bf4b4c8cfca6ed8a240193 -->
<g id="edge5" class="edge">
<title>84ff3092cd4f46a7893eace143a49aef&#45;&gt;5377ae06a3bf4b4c8cfca6ed8a240193</title>
<path fill="none" stroke="#7b8894" d="M366,-797.8C366,-745.34 366,-682 366,-682 366,-682 368.45,-682 368.45,-682"/>
<polygon fill="#7b8894" stroke="#7b8894" points="368.45,-685.5 378.45,-682 368.45,-678.5 368.45,-685.5"/>
</g>
<!-- 7ff3e0bee64a411ea39ca618de1da536 -->
<g id="node10" class="node">
<title>7ff3e0bee64a411ea39ca618de1da536</title>
<image xlink:href="/home/runner/.local/lib/python3.12/site-packages/resources/azure/compute/vm.png" width="101px" height="101px" preserveAspectRatio="xMinYMin meet" x="414.5" y="-153"/>
<text text-anchor="middle" x="465" y="-37.4" font-family="Arial" font-size="12.00" fill="#2d3436">Azure Virtual Machines</text>
</g>
<!-- bdeca60c1c2945008c3cfa7bc850679d&#45;&gt;7ff3e0bee64a411ea39ca618de1da536 -->
<g id="edge8" class="edge">
<title>bdeca60c1c2945008c3cfa7bc850679d&#45;&gt;7ff3e0bee64a411ea39ca618de1da536</title>
<path fill="none" stroke="#7b8894" d="M539,-797.98C539,-610.34 539,-102 539,-102 539,-102 525.59,-102 525.59,-102"/>
<polygon fill="#7b8894" stroke="#7b8894" points="525.59,-98.5 515.59,-102 525.59,-105.5 525.59,-98.5"/>
</g>
<!-- 0319576703cf4524964072b2dd390e35 -->
<g id="node7" class="node">
<title>0319576703cf4524964072b2dd390e35</title>
<image xlink:href="/home/runner/.local/lib/python3.12/site-packages/resources/azure/network/virtual-networks.png" width="101px" height="101px" preserveAspectRatio="xMinYMin meet" x="256.5" y="-398"/>
<text text-anchor="middle" x="307" y="-282.4" font-family="Arial" font-size="12.00" fill="#2d3436">Production VNet</text>
</g>
<!-- 5377ae06a3bf4b4c8cfca6ed8a240193&#45;&gt;0319576703cf4524964072b2dd390e35 -->
<g id="edge3" class="edge">
<title>5377ae06a3bf4b4c8cfca6ed8a240193&#45;&gt;0319576703cf4524964072b2dd390e35</title>
<path fill="none" stroke="#7b8894" d="M378.38,-531C353.8,-531 329.5,-531 329.5,-531 329.5,-531 329.5,-426.09 329.5,-426.09"/>
<polygon fill="#7b8894" stroke="#7b8894" points="333,-426.09 329.5,-416.09 326,-426.09 333,-426.09"/>
</g>
<!-- 9b891734f4974bd983404452215ec60e -->
<g id="node8" class="node">
<title>9b891734f4974bd983404452215ec60e</title>
<image xlink:href="/home/runner/.local/lib/python3.12/site-packages/resources/azure/network/virtual-networks.png" width="101px" height="101px" preserveAspectRatio="xMinYMin meet" x="429.5" y="-398"/>
<text text-anchor="middle" x="480" y="-282.4" font-family="Arial" font-size="12.00" fill="#2d3436">Development VNet</text>
</g>
<!-- 5377ae06a3bf4b4c8cfca6ed8a240193&#45;&gt;9b891734f4974bd983404452215ec60e -->
<g id="edge4" class="edge">
<title>5377ae06a3bf4b4c8cfca6ed8a240193&#45;&gt;9b891734f4974bd983404452215ec60e</title>
<path fill="none" stroke="#7b8894" d="M454.5,-523.82C454.5,-523.82 454.5,-426.32 454.5,-426.32"/>
<polygon fill="#7b8894" stroke="#7b8894" points="458,-426.32 454.5,-416.32 451,-426.32 458,-426.32"/>
</g>
<!-- 48ff738fe5c346a69d2c17a1f7edb64f -->
<g id="node9" class="node">
<title>48ff738fe5c346a69d2c17a1f7edb64f</title>
<image xlink:href="/home/runner/.local/lib/python3.12/site-packages/resources/azure/network/virtual-networks.png" width="101px" height="101px" preserveAspectRatio="xMinYMin meet" x="602.5" y="-398"/>
<text text-anchor="middle" x="653" y="-282.4" font-family="Arial" font-size="12.00" fill="#2d3436">Virtual Network</text>
</g>
<!-- 5377ae06a3bf4b4c8cfca6ed8a240193&#45;&gt;48ff738fe5c346a69d2c17a1f7edb64f -->
<g id="edge6" class="edge">
<title>5377ae06a3bf4b4c8cfca6ed8a240193&#45;&gt;48ff738fe5c346a69d2c17a1f7edb64f</title>
<path fill="none" stroke="#7b8894" d="M479.55,-607C545.62,-607 653,-607 653,-607 653,-607 653,-426.02 653,-426.02"/>
<polygon fill="#7b8894" stroke="#7b8894" points="656.5,-426.02 653,-416.02 649.5,-426.02 656.5,-426.02"/>
</g>
<!-- 0319576703cf4524964072b2dd390e35&#45;&gt;7ff3e0bee64a411ea39ca618de1da536 -->
<g id="edge7" class="edge">
<title>0319576703cf4524964072b2dd390e35&#45;&gt;7ff3e0bee64a411ea39ca618de1da536</title>
<path fill="none" stroke="#7b8894" d="M357.78,-347C388.58,-347 422,-347 422,-347 422,-347 422,-181.26 422,-181.26"/>
<polygon fill="#7b8894" stroke="#7b8894" points="425.5,-181.26 422,-171.26 418.5,-181.26 425.5,-181.26"/>
</g>
</g>
</svg>
