<svg xmlns="http://www.w3.org/2000/svg" width="1400" height="1000" viewBox="0 0 1400 1000">
  <!-- Title -->
  <text x="700" y="30" font-size="28" font-weight="bold" text-anchor="middle" fill="#0078d7">Structured Azure Enterprise Architecture</text>
  
  <!-- Security Zone Backgrounds -->
  <!-- Internet Edge Zone -->
  <rect x="50" y="60" width="1300" height="120" fill="#ffebee" stroke="#d32f2f" stroke-width="2" rx="5"/>
  <text x="70" y="85" font-size="18" font-weight="bold" fill="#d32f2f">Internet Edge Zone</text>
  
  <!-- Identity Security Zone -->
  <rect x="50" y="190" width="1300" height="120" fill="#fff3e0" stroke="#f57c00" stroke-width="2" rx="5"/>
  <text x="70" y="215" font-size="18" font-weight="bold" fill="#f57c00">Identity & Security Zone</text>
  
  <!-- Active Regions Zone -->
  <rect x="50" y="320" width="850" height="320" fill="#e8f5e8" stroke="#388e3c" stroke-width="2" rx="5"/>
  <text x="70" y="345" font-size="18" font-weight="bold" fill="#388e3c">Active Regions (Primary & Secondary)</text>
  
  <!-- Standby Region Zone -->
  <rect x="920" y="320" width="430" height="320" fill="#e3f2fd" stroke="#1976d2" stroke-width="2" rx="5"/>
  <text x="940" y="345" font-size="18" font-weight="bold" fill="#1976d2">Standby Region (DR)</text>
  
  <!-- Monitoring Overlay Zone -->
  <rect x="50" y="660" width="1300" height="120" fill="#f5f5f5" stroke="#616161" stroke-width="2" rx="5"/>
  <text x="70" y="685" font-size="18" font-weight="bold" fill="#616161">Monitoring & Observability</text>
  
  <!-- Internet Edge Components -->
  <!-- Front Door -->
  <rect x="100" y="100" width="80" height="60" fill="#0078d7" stroke="#005a9e" rx="5"/>
  <text x="140" y="125" font-size="10" text-anchor="middle" fill="white">Front Door</text>
  <text x="140" y="140" font-size="8" text-anchor="middle" fill="white">WAF</text>
  <circle cx="190" cy="120" r="8" fill="#4caf50"/>
  <text x="205" y="115" font-size="8" fill="#4caf50">HA</text>
  
  <!-- API Management -->
  <rect x="220" y="100" width="80" height="60" fill="#0078d7" stroke="#005a9e" rx="5"/>
  <text x="260" y="125" font-size="10" text-anchor="middle" fill="white">API Mgmt</text>
  <text x="260" y="140" font-size="8" text-anchor="middle" fill="white">Premium</text>
  
  <!-- Identity & Security Components -->
  <!-- Azure AD -->
  <rect x="100" y="230" width="80" height="60" fill="#0078d7" stroke="#005a9e" rx="5"/>
  <text x="140" y="250" font-size="10" text-anchor="middle" fill="white">Azure AD</text>
  <text x="140" y="265" font-size="8" text-anchor="middle" fill="white">Premium P2</text>
  
  <!-- Key Vault -->
  <rect x="220" y="230" width="80" height="60" fill="#0078d7" stroke="#005a9e" rx="5"/>
  <text x="260" y="250" font-size="10" text-anchor="middle" fill="white">Key Vault</text>
  <text x="260" y="265" font-size="8" text-anchor="middle" fill="white">Premium</text>
  
  <!-- Azure Firewall -->
  <rect x="340" y="230" width="80" height="60" fill="#0078d7" stroke="#005a9e" rx="5"/>
  <text x="380" y="250" font-size="10" text-anchor="middle" fill="white">Firewall</text>
  <text x="380" y="265" font-size="8" text-anchor="middle" fill="white">Premium</text>
  
  <!-- Active Regions Components -->
  <!-- Management Groups -->
  <rect x="100" y="370" width="120" height="40" fill="#9c27b0" stroke="#7b1fa2" rx="5"/>
  <text x="160" y="395" font-size="10" text-anchor="middle" fill="white">Root Management Group</text>
  
  <rect x="100" y="420" width="80" height="30" fill="#9c27b0" stroke="#7b1fa2" rx="3"/>
  <text x="140" y="440" font-size="9" text-anchor="middle" fill="white">Platform MG</text>
  
  <rect x="190" y="420" width="80" height="30" fill="#9c27b0" stroke="#7b1fa2" rx="3"/>
  <text x="230" y="440" font-size="9" text-anchor="middle" fill="white">Workloads MG</text>
  
  <!-- Network Components -->
  <!-- Hub VNet -->
  <rect x="300" y="370" width="100" height="60" fill="#ff9800" stroke="#f57c00" rx="5"/>
  <text x="350" y="395" font-size="10" text-anchor="middle" fill="white">Hub VNet</text>
  <text x="350" y="410" font-size="8" text-anchor="middle" fill="white">10.0.0.0/16</text>
  
  <!-- Production VNet -->
  <rect x="420" y="370" width="100" height="60" fill="#4caf50" stroke="#388e3c" rx="5"/>
  <text x="470" y="390" font-size="10" text-anchor="middle" fill="white">Prod VNet</text>
  <text x="470" y="405" font-size="8" text-anchor="middle" fill="white">10.1.0.0/16</text>
  <rect x="440" y="415" width="15" height="10" fill="#ffeb3b"/>
  <text x="460" y="421" font-size="6" fill="black">PROD</text>
  
  <!-- Development VNet -->
  <rect x="540" y="370" width="100" height="60" fill="#2196f3" stroke="#1976d2" rx="5"/>
  <text x="590" y="390" font-size="10" text-anchor="middle" fill="white">Dev VNet</text>
  <text x="590" y="405" font-size="8" text-anchor="middle" fill="white">10.2.0.0/16</text>
  <rect x="560" y="415" width="15" height="10" fill="#03a9f4"/>
  <text x="570" y="421" font-size="6" fill="white">DEV</text>
  
  <!-- Compute Services -->
  <!-- Virtual Machines -->
  <rect x="100" y="470" width="80" height="50" fill="#795548" stroke="#5d4037" rx="5"/>
  <text x="140" y="490" font-size="9" text-anchor="middle" fill="white">Azure VMs</text>
  <text x="140" y="505" font-size="7" text-anchor="middle" fill="white">Standard_D4s_v3</text>
  <circle cx="185" cy="485" r="6" fill="#4caf50"/>
  <text x="195" y="488" font-size="6" fill="#4caf50">Auto-Scale</text>
  
  <!-- AKS -->
  <rect x="220" y="470" width="80" height="50" fill="#326ce5" stroke="#1565c0" rx="5"/>
  <text x="260" y="490" font-size="9" text-anchor="middle" fill="white">AKS</text>
  <text x="260" y="505" font-size="7" text-anchor="middle" fill="white">Standard</text>
  <circle cx="305" cy="485" r="6" fill="#4caf50"/>
  
  <!-- Container Instances -->
  <rect x="340" y="470" width="80" height="50" fill="#00bcd4" stroke="#0097a7" rx="5"/>
  <text x="380" y="490" font-size="9" text-anchor="middle" fill="white">Container</text>
  <text x="380" y="505" font-size="7" text-anchor="middle" fill="white">Instances</text>
  
  <!-- App Service -->
  <rect x="460" y="470" width="80" height="50" fill="#8bc34a" stroke="#689f38" rx="5"/>
  <text x="500" y="490" font-size="9" text-anchor="middle" fill="white">App Service</text>
  <text x="500" y="505" font-size="7" text-anchor="middle" fill="white">Premium P2V2</text>
  
  <!-- Data Services -->
  <!-- Data Lake Storage -->
  <rect x="100" y="540" width="80" height="50" fill="#ff5722" stroke="#d84315" rx="5"/>
  <text x="140" y="560" font-size="9" text-anchor="middle" fill="white">Data Lake</text>
  <text x="140" y="575" font-size="7" text-anchor="middle" fill="white">Gen2</text>
  
  <!-- Storage Accounts -->
  <rect x="220" y="540" width="80" height="50" fill="#ff5722" stroke="#d84315" rx="5"/>
  <text x="260" y="560" font-size="9" text-anchor="middle" fill="white">Storage</text>
  <text x="260" y="575" font-size="7" text-anchor="middle" fill="white">Premium SSD</text>
  
  <!-- MySQL Database -->
  <rect x="340" y="540" width="80" height="50" fill="#3f51b5" stroke="#303f9f" rx="5"/>
  <text x="380" y="560" font-size="9" text-anchor="middle" fill="white">MySQL</text>
  <text x="380" y="575" font-size="7" text-anchor="middle" fill="white">Flexible</text>
  <circle cx="425" cy="555" r="6" fill="#4caf50"/>
  
  <!-- Synapse Analytics -->
  <rect x="460" y="540" width="80" height="50" fill="#673ab7" stroke="#512da8" rx="5"/>
  <text x="500" y="560" font-size="9" text-anchor="middle" fill="white">Synapse</text>
  <text x="500" y="575" font-size="7" text-anchor="middle" fill="white">Analytics</text>
  
  <!-- Integration Services -->
  <!-- Logic Apps -->
  <rect x="580" y="470" width="80" height="50" fill="#e91e63" stroke="#c2185b" rx="5"/>
  <text x="620" y="490" font-size="9" text-anchor="middle" fill="white">Logic Apps</text>
  <text x="620" y="505" font-size="7" text-anchor="middle" fill="white">Standard</text>
  
  <!-- Service Bus -->
  <rect x="680" y="470" width="80" height="50" fill="#ff9800" stroke="#f57c00" rx="5"/>
  <text x="720" y="490" font-size="9" text-anchor="middle" fill="white">Service Bus</text>
  <text x="720" y="505" font-size="7" text-anchor="middle" fill="white">Premium</text>
  
  <!-- Queue Storage -->
  <rect x="580" y="540" width="80" height="50" fill="#ff5722" stroke="#d84315" rx="5"/>
  <text x="620" y="560" font-size="9" text-anchor="middle" fill="white">Queue</text>
  <text x="620" y="575" font-size="7" text-anchor="middle" fill="white">Storage</text>
  
  <!-- Table Storage -->
  <rect x="680" y="540" width="80" height="50" fill="#ff5722" stroke="#d84315" rx="5"/>
  <text x="720" y="560" font-size="9" text-anchor="middle" fill="white">Table</text>
  <text x="720" y="575" font-size="7" text-anchor="middle" fill="white">Storage</text>
  
  <!-- Redis Cache -->
  <rect x="780" y="470" width="80" height="50" fill="#e53935" stroke="#c62828" rx="5"/>
  <text x="820" y="490" font-size="9" text-anchor="middle" fill="white">Redis Cache</text>
  <text x="820" y="505" font-size="7" text-anchor="middle" fill="white">Premium</text>
  
  <!-- DR Region Components -->
  <!-- DR VMs -->
  <rect x="950" y="370" width="80" height="50" fill="#795548" stroke="#5d4037" rx="5" opacity="0.7"/>
  <text x="990" y="390" font-size="9" text-anchor="middle" fill="white">DR VMs</text>
  <text x="990" y="405" font-size="7" text-anchor="middle" fill="white">Stopped</text>
  <rect x="965" y="410" width="15" height="10" fill="#f44336"/>
  <text x="975" y="417" font-size="6" fill="white">DR</text>
  
  <!-- DR Storage -->
  <rect x="1050" y="370" width="80" height="50" fill="#ff5722" stroke="#d84315" rx="5" opacity="0.7"/>
  <text x="1090" y="390" font-size="9" text-anchor="middle" fill="white">DR Storage</text>
  <text x="1090" y="405" font-size="7" text-anchor="middle" fill="white">GRS</text>
  
  <!-- Site Recovery -->
  <rect x="1150" y="370" width="80" height="50" fill="#607d8b" stroke="#455a64" rx="5"/>
  <text x="1190" y="390" font-size="9" text-anchor="middle" fill="white">Site</text>
  <text x="1190" y="405" font-size="7" text-anchor="middle" fill="white">Recovery</text>
  
  <!-- Azure Backup -->
  <rect x="1250" y="370" width="80" height="50" fill="#607d8b" stroke="#455a64" rx="5"/>
  <text x="1290" y="390" font-size="9" text-anchor="middle" fill="white">Backup</text>
  <text x="1290" y="405" font-size="7" text-anchor="middle" fill="white">Vault</text>
  
  <!-- Monitoring Components -->
  <!-- Azure Monitor -->
  <rect x="100" y="700" width="80" height="50" fill="#616161" stroke="#424242" rx="5"/>
  <text x="140" y="720" font-size="9" text-anchor="middle" fill="white">Azure</text>
  <text x="140" y="735" font-size="7" text-anchor="middle" fill="white">Monitor</text>
  
  <!-- Log Analytics -->
  <rect x="220" y="700" width="80" height="50" fill="#616161" stroke="#424242" rx="5"/>
  <text x="260" y="720" font-size="9" text-anchor="middle" fill="white">Log Analytics</text>
  <text x="260" y="735" font-size="7" text-anchor="middle" fill="white">Workspace</text>
  
  <!-- Application Insights -->
  <rect x="340" y="700" width="80" height="50" fill="#616161" stroke="#424242" rx="5"/>
  <text x="380" y="720" font-size="9" text-anchor="middle" fill="white">App Insights</text>
  <text x="380" y="735" font-size="7" text-anchor="middle" fill="white">APM</text>
  
  <!-- Azure Sentinel -->
  <rect x="460" y="700" width="80" height="50" fill="#616161" stroke="#424242" rx="5"/>
  <text x="500" y="720" font-size="9" text-anchor="middle" fill="white">Sentinel</text>
  <text x="500" y="735" font-size="7" text-anchor="middle" fill="white">SIEM</text>
  
  <!-- Azure DevOps -->
  <rect x="580" y="700" width="80" height="50" fill="#0078d7" stroke="#005a9e" rx="5"/>
  <text x="620" y="720" font-size="9" text-anchor="middle" fill="white">DevOps</text>
  <text x="620" y="735" font-size="7" text-anchor="middle" fill="white">Services</text>
  
  <!-- Workflow Arrows -->
  <!-- 1. Internet to Front Door -->
  <defs>
    <marker id="arrowhead" markerWidth="10" markerHeight="7" refX="9" refY="3.5" orient="auto">
      <polygon points="0 0, 10 3.5, 0 7" fill="#0078d7"/>
    </marker>
  </defs>
  
  <line x1="50" y1="130" x2="95" y2="130" stroke="#0078d7" stroke-width="3" marker-end="url(#arrowhead)"/>
  <text x="65" y="125" font-size="10" font-weight="bold" fill="#0078d7">1</text>
  
  <!-- 2. Front Door to API Management -->
  <line x1="185" y1="130" x2="215" y2="130" stroke="#0078d7" stroke-width="3" marker-end="url(#arrowhead)"/>
  <text x="195" y="125" font-size="10" font-weight="bold" fill="#0078d7">2</text>
  
  <!-- 3. API Management to Azure AD -->
  <line x1="260" y1="165" x2="140" y2="225" stroke="#0078d7" stroke-width="3" marker-end="url(#arrowhead)"/>
  <text x="190" y="190" font-size="10" font-weight="bold" fill="#0078d7">3</text>
  
  <!-- 4. Azure AD to Hub VNet -->
  <line x1="180" y1="260" x2="295" y2="390" stroke="#0078d7" stroke-width="3" marker-end="url(#arrowhead)"/>
  <text x="220" y="315" font-size="10" font-weight="bold" fill="#0078d7">4</text>
  
  <!-- 5. Hub to Production VNet -->
  <line x1="405" y1="400" x2="415" y2="400" stroke="#0078d7" stroke-width="3" marker-end="url(#arrowhead)"/>
  <text x="408" y="395" font-size="10" font-weight="bold" fill="#0078d7">5</text>
  
  <!-- 6. Production VNet to AKS -->
  <line x1="470" y1="435" x2="260" y2="465" stroke="#0078d7" stroke-width="3" marker-end="url(#arrowhead)"/>
  <text x="350" y="445" font-size="10" font-weight="bold" fill="#0078d7">6</text>
  
  <!-- Cross-region replication arrows -->
  <line x1="400" y1="450" x2="945" y2="395" stroke="#ff9800" stroke-width="2" stroke-dasharray="5,5" marker-end="url(#arrowhead)"/>
  <text x="650" y="415" font-size="10" fill="#ff9800">Cross-Region Replication</text>
  
  <!-- Monitoring connections (dashed) -->
  <line x1="140" y1="695" x2="140" y2="525" stroke="#616161" stroke-width="2" stroke-dasharray="3,3"/>
  <line x1="260" y1="695" x2="260" y2="525" stroke="#616161" stroke-width="2" stroke-dasharray="3,3"/>
  <line x1="380" y1="695" x2="380" y2="525" stroke="#616161" stroke-width="2" stroke-dasharray="3,3"/>
  
  <!-- Legend -->
  <rect x="1050" y="800" width="300" height="180" fill="white" stroke="#ccc" stroke-width="1" rx="5"/>
  <text x="1070" y="825" font-size="16" font-weight="bold" fill="#333">Legend</text>
  
  <!-- Zone colors -->
  <rect x="1070" y="840" width="15" height="10" fill="#ffebee"/>
  <text x="1095" y="850" font-size="10">Internet Edge Zone</text>
  
  <rect x="1070" y="855" width="15" height="10" fill="#fff3e0"/>
  <text x="1095" y="865" font-size="10">Identity Security Zone</text>
  
  <rect x="1070" y="870" width="15" height="10" fill="#e8f5e8"/>
  <text x="1095" y="880" font-size="10">Active Regions</text>
  
  <rect x="1070" y="885" width="15" height="10" fill="#e3f2fd"/>
  <text x="1095" y="895" font-size="10">Standby Region (DR)</text>
  
  <!-- Line types -->
  <line x1="1070" y1="910" x2="1110" y2="910" stroke="#0078d7" stroke-width="3"/>
  <text x="1120" y="915" font-size="10">Data Flow</text>
  
  <line x1="1070" y1="925" x2="1110" y2="925" stroke="#ff9800" stroke-width="2" stroke-dasharray="5,5"/>
  <text x="1120" y="930" font-size="10">Replication</text>
  
  <line x1="1070" y1="940" x2="1110" y2="940" stroke="#616161" stroke-width="2" stroke-dasharray="3,3"/>
  <text x="1120" y="945" font-size="10">Monitoring</text>
  
  <!-- Indicators -->
  <circle cx="1075" cy="960" r="5" fill="#4caf50"/>
  <text x="1090" y="965" font-size="10">HA/Auto-Scale</text>
  
  <rect x="1265" y="955" width="15" height="10" fill="#f44336"/>
  <text x="1285" y="965" font-size="10">DR</text>
  
</svg>